HIERARCHY
ROOT joint_Root
{
	OFFSET 0.0 0.0 0.0
	CHANNELS 6 Xposition Yposition Zposition Zrotation Xrotation Yrotation 
	JOINT Hips
	{
		OFFSET 4.5925 91.4895 -427.239
		CHANNELS 6 Xposition Yposition Zposition Zrotation Xrotation Yrotation 
		JOINT Spine
		{
			OFFSET 15.7357 0.0 0.0
			CHANNELS 6 Xposition Yposition Zposition Zrotation Xrotation Yrotation 
			JOINT Chest
			{
				OFFSET 8.98455 -0.406207 0.0
				CHANNELS 6 Xposition Yposition Zposition Zrotation Xrotation Yrotation 
				JOINT Neck
				{
					OFFSET 16.3773 0.0 0.0
					CHANNELS 6 Xposition Yposition Zposition Zrotation Xrotation Yrotation 
					JOINT Head
					{
						OFFSET 6.45672 0.0 0.0
						CHANNELS 6 Xposition Yposition Zposition Zrotation Xrotation Yrotation 
						End Site
						{
							OFFSET 0.0 0.0 0.0
						}
					}
				}
				JOINT Shoulder_L
				{
					OFFSET 12.9942 -0.242716 4.98039
					CHANNELS 6 Xposition Yposition Zposition Zrotation Xrotation Yrotation 
					JOINT UpperArm_L
					{
						OFFSET 5.34809 0.0 0.0
						CHANNELS 6 Xposition Yposition Zposition Zrotation Xrotation Yrotation 
						JOINT LowerArm_L
						{
							OFFSET 24.3286 1.87007e-05 0.0
							CHANNELS 6 Xposition Yposition Zposition Zrotation Xrotation Yrotation 
							JOINT Hand_L
							{
								OFFSET 22.2916 0.0 0.0
								CHANNELS 6 Xposition Yposition Zposition Zrotation Xrotation Yrotation 
								End Site
								{
									OFFSET 0.0 0.0 0.0
								}
							}
						}
					}
				}
				JOINT Shoulder_R
				{
					OFFSET 12.9945 -0.242716 -4.98039
					CHANNELS 6 Xposition Yposition Zposition Zrotation Xrotation Yrotation 
					JOINT UpperArm_R
					{
						OFFSET -5.34813 0.0 0.0
						CHANNELS 6 Xposition Yposition Zposition Zrotation Xrotation Yrotation 
						JOINT LowerArm_R
						{
							OFFSET -24.3289 0.000322201 0.0
							CHANNELS 6 Xposition Yposition Zposition Zrotation Xrotation Yrotation 
							JOINT Hand_R
							{
								OFFSET -22.2915 -0.000108084 0.0
								CHANNELS 6 Xposition Yposition Zposition Zrotation Xrotation Yrotation 
								End Site
								{
									OFFSET 0.0 0.0 0.0
								}
							}
						}
					}
				}
			}
		}
		JOINT UpperLeg_L
		{
			OFFSET -2.19248 -6.46944 0.0
			CHANNELS 6 Xposition Yposition Zposition Zrotation Xrotation Yrotation 
			JOINT LowerLeg_L
			{
				OFFSET 39.0811 0.0 -1.23785e-05
				CHANNELS 6 Xposition Yposition Zposition Zrotation Xrotation Yrotation 
				JOINT Foot_L
				{
					OFFSET 40.9854 0.0 -1.26872e-05
					CHANNELS 6 Xposition Yposition Zposition Zrotation Xrotation Yrotation 
					JOINT Toes_L
					{
						OFFSET 11.7543 0.0 0.0
						CHANNELS 6 Xposition Yposition Zposition Zrotation Xrotation Yrotation 
						End Site
						{
							OFFSET 0.0 0.0 0.0
						}
					}
				}
			}
		}
		JOINT UpperLeg_R
		{
			OFFSET -2.19251 6.46944 0.0
			CHANNELS 6 Xposition Yposition Zposition Zrotation Xrotation Yrotation 
			JOINT LowerLeg_R
			{
				OFFSET -39.0811 -0.00228153 -0.0401928
				CHANNELS 6 Xposition Yposition Zposition Zrotation Xrotation Yrotation 
				JOINT Foot_R
				{
					OFFSET -40.9854 0.0 0.0
					CHANNELS 6 Xposition Yposition Zposition Zrotation Xrotation Yrotation 
					JOINT Toes_R
					{
						OFFSET -11.7543 0.0 0.0
						CHANNELS 6 Xposition Yposition Zposition Zrotation Xrotation Yrotation 
						End Site
						{
							OFFSET 0.0 0.0 0.0
						}
					}
				}
			}
		}
	}
}
MOTION
Frames:	5
Frame Time:	0.0333333
0.000000 0.000000 0.000000 0.000000 0.000000 -0.000000 -2.780050 83.707400 -0.784918 87.715000 -8.313210 10.128000 15.735700 0.000005 -0.000001 74.502600 81.436500 -73.999900 8.984550 -0.406207 -0.000000 8.779130 -4.548910 1.354300 16.377300 -0.000001 -0.000001 -2.878530 3.217490 1.643050 6.456720 -0.000001 -0.000000 -5.686530 9.775340 1.382950 12.994200 -0.242716 4.980390 -90.799500 2.690870 -73.446200 5.348090 -0.000007 -0.000001 -67.234500 32.139400 -7.524390 24.328600 0.000019 0.000005 6.594320 12.201500 -28.677300 22.291600 -0.000001 0.000005 12.428300 5.206130 2.565380 12.994500 -0.242716 -4.980390 86.530500 12.865600 -74.768500 -5.348130 -0.000001 -0.000004 -60.521900 7.652200 -0.445830 -24.328900 0.000322 -0.000009 0.664059 4.478300 -8.482200 -22.291500 -0.000108 -0.000004 6.530140 5.281300 0.592346 -2.192480 -6.469440 -0.000000 -171.435000 -9.929870 -12.735600 39.081100 -0.000007 -0.000012 -0.599309 0.376474 57.865300 40.985400 -0.000006 -0.000013 -3.556420 0.150631 -84.090200 11.754300 -0.000000 0.000003 -0.000426 -0.003484 -16.705700 -2.192510 6.469440 -0.000001 -179.424000 9.759340 165.747000 -39.081100 -0.002282 -0.040193 0.064409 -0.038809 57.617900 -40.985400 0.000008 0.000006 7.561940 3.400170 -83.425100 -11.754300 -0.000006 -0.000006 -0.001356 -0.020347 -17.400500
0.000000 0.000000 0.000000 0.000000 0.000000 -0.000000 -3.550730 85.117700 -0.537171 87.638600 -3.718490 9.436820 15.735700 0.000005 -0.000001 75.177800 82.396700 -75.662700 8.984550 -0.406207 -0.000000 6.930320 -3.873470 -0.734271 16.377300 -0.000001 -0.000001 -2.136960 1.413950 1.501760 6.456720 -0.000001 -0.000000 -4.703520 6.367960 2.344200 12.994200 -0.242716 4.980390 -90.945600 3.074980 -72.897000 5.348090 -0.000007 -0.000001 -65.791900 31.178300 -9.299490 24.328600 0.000019 0.000005 5.462670 10.361000 -28.000700 22.291600 -0.000001 0.000005 13.146900 5.225610 2.069280 12.994500 -0.242716 -4.980390 87.073500 10.881700 -74.847900 -5.348130 -0.000001 -0.000004 -58.248300 2.836070 -1.983000 -24.328900 0.000322 -0.000009 0.669322 10.084700 -3.824390 -22.291500 -0.000108 -0.000004 1.230340 5.352490 -1.462460 -2.192480 -6.469440 -0.000000 -171.289000 -7.684130 -12.102100 39.081100 -0.000007 -0.000012 -0.498695 0.368161 53.564600 40.985400 -0.000006 -0.000013 -3.019110 2.238370 -81.490200 11.754300 -0.000000 0.000003 -0.000377 -0.003146 -16.693800 -2.192510 6.469440 -0.000001 -179.084000 12.615900 167.767000 -39.081100 -0.002282 -0.040193 0.071550 -0.051239 53.128200 -40.985400 0.000008 0.000006 7.225300 2.009780 -81.480700 -11.754300 -0.000006 -0.000006 -0.001212 -0.018375 -17.320400
0.000000 0.000000 0.000000 0.000000 0.000000 -0.000000 -4.146300 87.105400 -0.344782 87.964300 0.351970 7.791530 15.735700 0.000005 -0.000001 75.183700 83.714800 -76.948100 8.984550 -0.406207 -0.000000 4.345550 -3.156560 -3.405600 16.377300 -0.000001 -0.000001 -0.553849 -0.244241 1.693400 6.456720 -0.000001 -0.000000 -3.511350 3.083140 3.971930 12.994200 -0.242716 4.980390 -90.967500 2.946490 -71.813700 5.348090 -0.000007 -0.000001 -65.477500 29.566600 -9.870710 24.328600 0.000019 0.000005 5.933110 10.918500 -28.751600 22.291600 -0.000001 0.000005 13.466600 5.251310 1.398260 12.994500 -0.242716 -4.980390 87.681000 8.450900 -74.593800 -5.348130 -0.000001 -0.000004 -52.918000 -4.625580 -6.213550 -24.328900 0.000322 -0.000009 0.340427 9.491290 -2.069620 -22.291500 -0.000108 -0.000004 -0.016873 5.343110 -1.172910 -2.192480 -6.469440 -0.000000 -171.603000 -6.572280 -11.171800 39.081100 -0.000007 -0.000012 -0.390460 0.367033 46.772300 40.985400 -0.000006 -0.000013 -2.477610 4.527460 -77.615500 11.754300 -0.000000 0.000003 -0.000282 -0.002472 -16.669800 -2.192510 6.469440 -0.000001 -178.969000 15.199400 169.588000 -39.081100 -0.002282 -0.040193 0.065980 -0.059372 46.571200 -40.985400 0.000008 0.000006 6.839690 1.271430 -78.079800 -11.754300 -0.000006 -0.000006 -0.001806 -0.026261 -17.640900
0.000000 0.000000 0.000000 0.000000 0.000000 -0.000000 -4.417990 88.954900 -0.295762 88.281200 3.575960 5.831190 15.735700 0.000005 -0.000001 73.680400 84.978300 -76.503300 8.984550 -0.406207 -0.000000 1.815160 -2.673960 -5.598730 16.377300 -0.000001 -0.000001 1.281810 -1.493750 1.630270 6.456720 -0.000001 -0.000000 -1.969570 0.517839 5.030350 12.994200 -0.242716 4.980390 -90.955900 2.704530 -70.525600 5.348090 -0.000007 -0.000001 -66.098200 27.354800 -9.104280 24.328600 0.000019 0.000005 6.162260 10.469800 -30.717000 22.291600 -0.000001 0.000005 12.625000 5.260360 1.157070 12.994500 -0.242716 -4.980390 88.329500 6.141760 -74.753000 -5.348130 -0.000001 -0.000004 -45.031300 -14.780700 -13.336000 -24.328900 0.000322 -0.000009 0.250869 6.159140 -2.347950 -22.291500 -0.000108 -0.000004 3.585550 5.313350 -0.306759 -2.192480 -6.469440 -0.000000 -172.061000 -6.406530 -10.215600 39.081100 -0.000007 -0.000012 -0.281847 0.340977 39.577300 40.985400 -0.000006 -0.000013 -2.026310 6.715240 -73.568400 11.754300 -0.000000 0.000003 -0.000158 -0.001515 -16.635100 -2.192510 6.469440 -0.000001 -178.820000 17.359300 171.039000 -39.081100 -0.002282 -0.040193 0.056361 -0.063780 39.769600 -40.985400 0.000008 0.000006 6.783290 1.066050 -74.345400 -11.754300 -0.000006 -0.000006 -0.096790 -0.144040 -18.016400
0.000000 0.000000 0.000000 0.000000 0.000000 -0.000000 -4.423730 90.178300 -0.316132 88.437300 5.425480 4.649850 15.735700 0.000005 -0.000001 73.100800 85.751900 -76.399900 8.984550 -0.406207 -0.000000 0.307697 -2.254540 -6.588110 16.377300 -0.000001 -0.000001 2.456800 -2.181050 0.900057 6.456720 -0.000001 -0.000000 -0.590259 -1.223280 4.791970 12.994200 -0.242716 4.980390 -91.081800 2.884500 -69.432300 5.348090 -0.000007 -0.000001 -67.050900 25.071300 -7.920790 24.328600 0.000019 0.000005 5.645570 8.963260 -32.395000 22.291600 -0.000001 0.000005 12.449800 5.274190 0.784523 12.994500 -0.242716 -4.980390 89.126700 3.580710 -76.288000 -5.348130 -0.000001 -0.000004 -36.124600 -26.536700 -21.694500 -24.328900 0.000322 -0.000009 -0.100982 -1.026430 -5.455360 -22.291500 -0.000108 -0.000004 7.761950 5.354480 -1.500270 -2.192480 -6.469440 -0.000000 -172.309000 -7.435590 -9.047120 39.081100 -0.000007 -0.000012 -0.201977 0.297976 34.130900 40.985400 -0.000006 -0.000013 -1.605620 8.795750 -70.536100 11.754300 -0.000000 0.000003 -0.000077 -0.000821 -16.609200 -2.192510 6.469440 -0.000001 -178.797000 18.798200 172.463000 -39.081100 -0.002282 -0.040193 0.046710 -0.063076 34.541200 -40.985400 0.000008 0.000006 6.571700 1.396130 -71.532500 -11.754300 -0.000006 -0.000006 -0.094907 -0.146994 -18.295300
